<svg width="416" height="54" viewBox="0 0 416 54" fill="none" xmlns="http://www.w3.org/2000/svg">
<circle cx="26.4506" cy="26.4506" r="26.4506" fill="#2B2B2B"/>
<path d="M15.7938 25.7992L28.1412 10.8125C29.0232 9.74194 30.7487 10.5768 30.4567 11.9329L28.0388 23.1595C27.8529 24.0229 28.5485 24.8228 29.4294 24.7583L35.6745 24.3013C36.8624 24.2144 37.5517 25.618 36.7568 26.5049L22.8964 41.9686C21.9519 43.0224 20.2353 42.0583 20.6434 40.7034L24.2924 28.5906C24.5775 27.6441 23.7623 26.7305 22.7896 26.9063L17.0507 27.9434C15.8377 28.1626 15.01 26.7506 15.7938 25.7992Z" fill="#00FF84"/>
<path d="M90.7178 21.5238C97.791 22.3383 102.721 24.1388 102.721 30.9977C102.721 35.9704 98.4341 40.3429 90.3749 40.3429C81.9727 40.3429 78.0288 34.9416 78.0288 29.3687H83.6874C83.7732 31.6836 84.8449 35.5417 90.3749 35.5417C95.3904 35.5417 96.8908 33.0125 96.8908 31.3406C96.8908 29.283 95.5619 27.7826 90.3749 27.0967C81.8012 25.9821 79.0577 23.1957 79.0577 18.0515C79.0577 13.336 83.3016 9.47789 90.4606 9.47789C98.3055 9.47789 101.521 14.1934 101.606 19.0803H96.0763C96.0763 17.1084 94.7474 14.2791 90.3749 14.2791C85.9594 14.2791 84.8449 16.5083 84.8449 17.7943C84.8449 18.9517 85.4022 20.9237 90.7178 21.5238ZM115.239 17.0227C122.313 17.0227 126.557 22.2526 126.557 28.6828C126.557 35.113 122.313 40.3429 115.239 40.3429C108.166 40.3429 103.922 35.113 103.922 28.6828C103.922 22.2526 108.166 17.0227 115.239 17.0227ZM115.239 35.3702C118.969 35.3702 121.069 32.3695 121.069 28.6828C121.069 24.9962 118.969 21.9954 115.239 21.9954C111.51 21.9954 109.409 24.9962 109.409 28.6828C109.409 32.3695 111.51 35.3702 115.239 35.3702ZM136.595 40.3429C131.708 40.3429 128.45 37.1707 128.45 30.7405V17.3656H133.937V28.8543C133.937 33.9556 135.266 35.3702 138.138 35.3702C141.311 35.3702 144.226 31.8122 144.226 26.5823V17.3656H149.713V40H144.226V38.5854C144.226 37.2136 144.526 36.3991 144.911 35.4988C145.083 35.113 145.34 34.5129 144.783 34.3843C144.44 34.2985 144.311 34.5557 144.14 34.8987C143.025 37.1278 140.539 40.3429 136.595 40.3429ZM158.371 22.2097C158.629 22.2526 158.843 21.9096 158.886 21.781C160.258 18.6517 161.501 17.0227 167.031 17.0227V22.5955C160.643 22.1669 158.8 24.4389 158.8 30.1832V40H153.313V17.3656H158.8V18.6088C158.8 19.5948 158.543 20.4521 158.157 21.2238C157.986 21.6096 157.857 22.124 158.371 22.2097ZM166.866 28.6828C166.866 21.9525 171.282 17.0227 178.312 17.0227C184.657 17.0227 188.429 21.3095 188.815 25.9393H183.413C183.07 23.7958 181.399 21.9954 178.312 21.9954C174.54 21.9954 172.353 24.7389 172.353 28.6828C172.353 32.6267 174.54 35.3702 178.312 35.3702C181.399 35.3702 183.07 33.5698 183.413 31.4264H188.815C188.429 36.0561 184.699 40.3429 178.312 40.3429C171.41 40.3429 166.866 35.4131 166.866 28.6828ZM212.113 28.3827C212.113 28.9829 212.07 29.4116 211.984 30.0546H195.523C195.909 33.484 198.138 35.5417 201.567 35.5417C204.182 35.5417 205.511 34.1271 206.154 32.1123H211.727C210.741 36.7849 207.569 40.3429 201.524 40.3429C194.194 40.3429 190.164 35.4131 190.164 28.6828C190.164 21.6096 194.537 17.0227 201.438 17.0227C206.668 17.0227 212.113 20.1521 212.113 28.3827ZM195.737 26.2822H206.626C206.411 23.5386 204.782 21.481 201.61 21.481C197.88 21.481 196.294 23.5815 195.737 26.2822ZM223.213 13.9362C220.898 13.9362 220.855 14.1076 220.855 16.594V17.3656H227.028V22.1669H220.855V40H215.368V22.1669H211.939V17.3656H215.368V16.0796C215.368 10.6353 217.512 9.13494 222.056 9.13494H227.028V13.9362H223.213ZM236.381 40.3429C231.494 40.3429 228.236 37.1707 228.236 30.7405V17.3656H233.723V28.8543C233.723 33.9556 235.052 35.3702 237.924 35.3702C241.096 35.3702 244.011 31.8122 244.011 26.5823V17.3656H249.498V40H244.011V38.5854C244.011 37.2136 244.311 36.3991 244.697 35.4988C244.869 35.113 245.126 34.5129 244.569 34.3843C244.226 34.2985 244.097 34.5557 243.926 34.8987C242.811 37.1278 240.325 40.3429 236.381 40.3429ZM253.099 9.13494H258.586V40H253.099V9.13494Z" fill="#2B2B2B"/>
<path d="M293.663 14.965H278.231V22.5098H290.92V27.311H278.231V34.8558H293.663V40H272.401V9.82083H293.663V14.965ZM310.03 17.0227C314.917 17.0227 318.175 20.1949 318.175 26.6251V40H312.688V28.5113C312.688 23.41 311.359 21.9954 308.487 21.9954C305.315 21.9954 302.4 25.5534 302.4 30.7834V40H296.912V17.3656H302.4V18.7803C302.4 20.1521 302.142 20.9665 301.714 21.8668C301.542 22.2526 301.285 22.8527 301.842 22.9814C302.185 23.0671 302.314 22.8099 302.485 22.4669C303.514 20.1949 306.086 17.0227 310.03 17.0227ZM342.001 28.3827C342.001 28.9829 341.958 29.4116 341.872 30.0546H325.411C325.797 33.484 328.026 35.5417 331.455 35.5417C334.07 35.5417 335.399 34.1271 336.042 32.1123H341.615C340.629 36.7849 337.457 40.3429 331.413 40.3429C324.082 40.3429 320.053 35.4131 320.053 28.6828C320.053 21.6096 324.425 17.0227 331.327 17.0227C336.557 17.0227 342.001 20.1521 342.001 28.3827ZM325.625 26.2822H336.514C336.3 23.5386 334.671 21.481 331.498 21.481C327.769 21.481 326.183 23.5815 325.625 26.2822ZM348.943 22.2097C349.201 22.2526 349.415 21.9096 349.458 21.781C350.83 18.6517 352.073 17.0227 357.603 17.0227V22.5955C351.215 22.1669 349.372 24.4389 349.372 30.1832V40H343.885V17.3656H349.372V18.6088C349.372 19.5948 349.115 20.4521 348.729 21.2238C348.558 21.6096 348.429 22.124 348.943 22.2097ZM357.773 28.1684C357.773 22.0811 361.76 17.0227 367.633 17.0227C371.148 17.0227 373.334 18.7803 374.792 21.138C374.835 21.2238 375.092 21.781 375.478 21.6096C375.906 21.4381 375.606 20.8808 375.392 20.4521C375.049 19.8091 374.92 19.209 374.92 18.3945V17.3656H380.408V37.5994C380.408 44.8441 376.164 48.5736 369.219 48.5736C362.103 48.5736 358.845 44.7584 358.459 40.5144H363.86C364.118 42.5721 365.489 44.1153 369.133 44.1153C372.991 44.1153 374.92 41.9719 374.92 37.8137C374.92 37.0421 375.049 36.4419 375.392 35.7989C375.606 35.3702 375.906 34.9416 375.478 34.7272C375.092 34.5557 375.049 34.9416 374.792 35.113C373.334 37.5994 371.062 39.3141 367.633 39.3141C361.76 39.3141 357.773 34.2557 357.773 28.1684ZM368.919 34.3414C372.52 34.3414 374.92 31.5121 374.92 28.1684C374.92 24.8247 372.52 21.9954 368.919 21.9954C365.061 21.9954 363.26 24.8247 363.26 28.1684C363.26 31.5121 365.061 34.3414 368.919 34.3414ZM381.625 17.3656H387.455L392.513 31.9837C392.814 32.8839 392.856 33.6984 392.856 34.5557C392.856 34.8558 392.899 35.2845 393.371 35.2845C393.842 35.2845 393.885 34.8987 393.885 34.5557C393.885 33.7413 393.971 32.8839 394.271 31.9837L399.115 17.3656H404.945L395.343 42.615C393.799 46.6446 391.656 48.2307 387.712 48.2307H383.597V43.4295H385.483C388.741 43.4295 389.384 43.4295 389.984 41.6719L390.456 40.3001L381.625 17.3656Z" fill="#2B2B2B" fill-opacity="0.7"/>
</svg>
